# Blender 5.1.1
# www.blender.org
mtllib table.mtl
o Plane
v -0.700000 0.250000 1.000000
v 0.700000 0.250000 1.000000
v -0.700000 0.250000 -1.000000
v 0.700000 0.250000 -1.000000
v 0.562993 -0.750000 0.700000
v 0.405969 0.250000 0.788156
v 0.562993 0.250000 0.700000
v -0.562992 -0.750000 0.700000
v -0.405969 0.250000 0.788156
v -0.562992 0.250000 0.700000
v 0.562993 -0.750000 -0.700000
v 0.405969 0.250000 -0.788156
v 0.562993 0.250000 -0.700000
v -0.562992 -0.750000 -0.700000
v -0.405969 0.250000 -0.788156
v -0.562992 0.250000 -0.700000
vn -0.0000 1.0000 -0.0000
vn 0.4895 -0.0000 0.8720
vn -0.4895 -0.0000 0.8720
vn 0.4895 -0.0000 -0.8720
vn -0.4895 -0.0000 -0.8720
vt 0.000000 0.000000
s 0
f 2/1/1 4/1/1 3/1/1
f 2/1/1 3/1/1 1/1/1
f 5/1/2 7/1/2 6/1/2
f 8/1/3 9/1/3 10/1/3
f 11/1/4 12/1/4 13/1/4
f 14/1/5 16/1/5 15/1/5
